<svg width="25" height="26" viewBox="0 0 25 26" fill="none" xmlns="http://www.w3.org/2000/svg">
<path fill-rule="evenodd" clip-rule="evenodd" d="M16.7421 4.69212C15.7357 3.66852 14.3155 3.10413 12.6583 3.10413C11.0012 3.10413 9.58098 3.66852 8.57467 4.69212C7.56914 5.71492 7.01714 7.15507 7.01714 8.83329C7.01714 11.0927 8.00086 12.5489 9.21835 13.4231C9.45496 13.5929 9.69949 13.7403 9.94618 13.8674C8.58559 14.2412 7.48083 14.893 6.58136 15.7014C5.1591 16.9796 4.27759 18.6242 3.68369 20.0968C3.57611 20.3636 3.70515 20.667 3.97193 20.7746C4.2387 20.8822 4.54217 20.7532 4.64975 20.4864C5.21503 19.0847 6.02237 17.6043 7.27765 16.4761C8.52033 15.3593 10.2293 14.5625 12.6583 14.5625C14.9292 14.5625 16.5686 15.2588 17.7854 16.2582C19.0125 17.2659 19.8389 18.6058 20.431 19.9304C20.826 20.8141 20.1327 21.8541 19.0445 21.8541H7.02593C6.73828 21.8541 6.5051 22.0874 6.5051 22.375C6.5051 22.6626 6.73828 22.8958 7.02593 22.8958H19.0445C20.7654 22.8958 22.1332 21.1862 21.382 19.5054C20.7533 18.0991 19.8442 16.6009 18.4466 15.4532C17.617 14.7719 16.6253 14.2226 15.4378 13.8861C16.0729 13.535 16.595 13.0689 17.0104 12.5407C17.9093 11.3979 18.2996 9.97929 18.2996 8.83329C18.2996 7.15507 17.7476 5.71492 16.7421 4.69212ZM15.9993 5.42239C16.7858 6.2225 17.2579 7.38651 17.2579 8.83329C17.2579 9.77063 16.9314 10.9562 16.1917 11.8967C15.4662 12.8192 14.3341 13.5208 12.6583 13.5208C11.9806 13.5208 10.8114 13.2844 9.82589 12.5768C8.86721 11.8885 8.0588 10.7406 8.0588 8.83329C8.0588 7.38651 8.53088 6.2225 9.31748 5.42239C10.1033 4.62306 11.2432 4.14579 12.6583 4.14579C14.0735 4.14579 15.2134 4.62306 15.9993 5.42239Z" fill="#F2F2F2"/>
</svg>
